<?xml version="1.0" encoding="UTF-8"?>
<svg version="1.1" xmlns="http://www.w3.org/2000/svg" width="1536" height="1024">
<path d="M0 0 C506.88 0 1013.76 0 1536 0 C1536 337.92 1536 675.84 1536 1024 C1029.12 1024 522.24 1024 0 1024 C0 686.08 0 348.16 0 0 Z " fill="#FDFDFD" transform="translate(0,0)"/>
<path d="M0 0 C3.44850743 2.03665462 6.93385877 4.00421494 10.42871094 5.95996094 C11.069375 6.31977051 11.71003906 6.67958008 12.37011719 7.05029297 C15.87360621 9.01444961 19.38616637 10.96143081 22.90527344 12.89746094 C29.7082195 16.64501615 36.46978628 20.39943949 43.05371094 24.52246094 C48.09621858 27.6779726 53.23692189 30.503628 58.50195312 33.25952148 C64.09849904 36.20833896 69.53673922 39.39410562 74.97436523 42.62451172 C79.59144449 45.36383645 84.23906931 48.03452258 88.92871094 50.64746094 C98.9090069 56.22036294 108.76830375 62.00093873 118.62402344 67.79052734 C120.98125591 69.17187565 123.34404279 70.54279423 125.70996094 71.90917969 C138.87952079 79.57153019 150.96026512 88.39564039 161.91455078 99.00146484 C163.37676051 100.40760599 164.86353559 101.78362071 166.35449219 103.15917969 C191.19727821 126.50366538 208.21084224 163.20779419 209.63891602 197.28076172 C209.74497703 201.50314587 209.74375036 205.72248866 209.70239258 209.94580078 C209.67866315 212.52766016 209.68188125 215.10848747 209.68847656 217.69042969 C209.66703186 231.26176771 208.67410665 244.43348636 204.80371094 257.52246094 C204.54759033 258.39789551 204.29146973 259.27333008 204.02758789 260.17529297 C191.98469331 299.74429967 166.67088418 332.3248385 130.20605469 352.11230469 C127.28213698 353.59501392 124.33552768 355.0082594 121.36621094 356.39746094 C120.47546875 356.83832031 119.58472656 357.27917969 118.66699219 357.73339844 C111.45511406 361.20773389 104.15679882 363.59605777 96.36621094 365.39746094 C95.43728027 365.61466797 94.50834961 365.831875 93.55126953 366.05566406 C53.92690716 374.98684981 11.47605581 372.55298374 -23.63378906 350.39746094 C-27.78088686 347.58922805 -31.71307627 344.51096815 -35.63378906 341.39746094 C-44.05512161 334.94110598 -50.46145226 330.18785754 -61.63378906 331.39746094 C-68.67229644 334.01964996 -72.8286669 339.60985064 -77.63378906 345.14746094 C-89.67264304 358.52144711 -106.28020194 367.09980028 -123.63378906 371.39746094 C-124.32641846 371.5747876 -125.01904785 371.75211426 -125.73266602 371.93481445 C-133.24379367 373.67064741 -140.63825028 373.74360157 -148.32128906 373.70996094 C-148.98808685 373.70780579 -149.65488464 373.70565063 -150.34188843 373.70343018 C-160.09859352 373.65275208 -169.2453996 373.30209591 -178.63378906 370.39746094 C-179.31683105 370.18814941 -179.99987305 369.97883789 -180.70361328 369.76318359 C-206.22529648 361.78659913 -229.6626396 345.27189546 -242.63378906 321.39746094 C-242.99339986 320.07097348 -243.3316467 318.73820658 -243.63378906 317.39746094 C-242.11948303 317.41530891 -242.11948303 317.41530891 -240.57458496 317.43351746 C-231.04080014 317.53867314 -221.50824924 317.58563341 -211.97386932 317.5762434 C-207.07233525 317.5732697 -202.17263721 317.59049105 -197.27148438 317.65454102 C-192.53743929 317.71565298 -187.80604834 317.72283256 -183.07173157 317.69329262 C-181.26963581 317.69139526 -179.46741096 317.70863329 -177.66569519 317.74568748 C-167.589164 318.22687963 -167.589164 318.22687963 -158.85668945 314.08705139 C-156.7935221 311.28259355 -155.1911582 308.50615857 -153.63378906 305.39746094 C-152.83590867 304.22002626 -152.01729943 303.0559276 -151.16503906 301.91723633 C-148.97827348 298.77139531 -146.80388695 295.61732172 -144.63378906 292.45996094 C-144.24562012 291.90429443 -143.85745117 291.34862793 -143.45751953 290.77612305 C-142.31988151 289.1469628 -141.19537113 287.5086601 -140.07128906 285.87011719 C-139.41 284.91371338 -138.74871094 283.95730957 -138.06738281 282.97192383 C-136.30945043 280.3061271 -136.30945043 280.3061271 -136.63378906 276.39746094 C-137.96518328 273.57785283 -137.96518328 273.57785283 -139.81738281 270.59277344 C-140.15117447 270.03234344 -140.48496613 269.47191345 -140.82887268 268.89450073 C-141.90156326 267.09881232 -142.9864323 265.31081915 -144.07128906 263.52246094 C-144.76670216 262.35884731 -145.46137041 261.1947882 -146.15527344 260.03027344 C-148.66294135 255.81223757 -148.66294135 255.81223757 -151.28172302 251.66329956 C-152.63378906 249.39746094 -152.63378906 249.39746094 -154.25062561 245.88967896 C-157.5820469 239.02370479 -157.5820469 239.02370479 -163.52102852 234.60667038 C-169.09728985 233.34440636 -174.77296295 233.64307972 -180.45019531 233.81152344 C-182.27579032 233.81520236 -184.10140732 233.8126944 -185.92698669 233.80429077 C-190.7079587 233.79876002 -195.48398567 233.87667978 -200.26385498 233.97259521 C-205.15063762 234.05569442 -210.03742236 234.05906262 -214.92480469 234.06933594 C-224.49612495 234.1011095 -234.064116 234.2211333 -243.63378906 234.39746094 C-237.40382129 215.02868296 -220.1655853 200.56322658 -202.81738281 190.95605469 C-179.24677396 179.41657869 -153.10336962 176.91649752 -127.63378906 183.39746094 C-126.33248047 183.6875 -126.33248047 183.6875 -125.00488281 183.98339844 C-103.10423505 189.5397407 -84.74224266 204.6833565 -72.02001953 222.76318359 C-68.1879511 228.09056803 -64.29456849 232.05476929 -57.63378906 233.39746094 C-54.87269061 233.54828477 -52.13116977 233.65364802 -49.36816406 233.71386719 C-48.17806732 233.74503883 -48.17806732 233.74503883 -46.96392822 233.77684021 C-44.43730063 233.84206066 -41.91057185 233.90109238 -39.38378906 233.95996094 C-37.6676329 234.00317234 -35.95148685 234.04678746 -34.23535156 234.09082031 C-30.0349336 234.19771376 -25.83441417 234.29905823 -21.63378906 234.39746094 C-21.43857666 234.96029785 -21.24336426 235.52313477 -21.04223633 236.10302734 C-11.87930337 262.17580902 1.49791629 281.32823231 26.11621094 294.70996094 C46.12980731 303.91673987 70.19484568 306.28853277 91.36621094 299.39746094 C92.46578125 299.04554688 93.56535156 298.69363281 94.69824219 298.33105469 C102.30589294 295.64756437 108.645642 291.81123797 115.36621094 287.39746094 C98.72829454 279.52136462 82.00132604 272.21924196 64.88623047 265.44384766 C64.05462402 265.09854004 63.22301758 264.75323242 62.36621094 264.39746094 C61.62290527 264.14053467 60.87959961 263.8836084 60.11376953 263.61889648 C58.36621094 262.39746094 58.36621094 262.39746094 57.51660156 259.86987305 C57.35353516 258.81550049 57.19046875 257.76112793 57.02246094 256.67480469 C56.82998779 255.50377197 56.63751465 254.33273926 56.43920898 253.1262207 C56.15557495 251.24954712 56.15557495 251.24954712 55.86621094 249.33496094 C55.44940658 246.77965588 55.02883908 244.22496177 54.60449219 241.67089844 C54.39904785 240.4253418 54.19360352 239.17978516 53.98193359 237.89648438 C52.95538644 232.06283098 51.54104854 226.35345053 50.06542969 220.62011719 C48.92444617 215.36139429 48.92444617 215.36139429 49.36621094 212.39746094 C50.87792969 210.76464844 50.87792969 210.76464844 53.05371094 209.27246094 C57.0765889 206.36564786 60.90987658 203.31153718 64.67871094 200.08496094 C65.22615967 199.62234863 65.7736084 199.15973633 66.33764648 198.68310547 C69.15484342 196.3012524 71.9410432 193.89250897 74.69042969 191.43261719 C75.22434326 190.9644458 75.75825684 190.49627441 76.30834961 190.01391602 C77.78426548 188.71933819 79.24751387 187.41035996 80.70996094 186.10058594 C83.36621094 184.39746094 83.36621094 184.39746094 85.61035156 184.61328125 C88.92969504 185.55780032 91.96075714 186.8408922 95.11621094 188.24121094 C95.76344116 188.52656708 96.41067139 188.81192322 97.07751465 189.10592651 C99.17574533 190.03199051 101.27092485 190.9647565 103.36621094 191.89746094 C105.52944186 192.85381286 107.69346621 193.80835295 109.85754395 194.76278687 C111.30009471 195.39912379 112.74239662 196.03602517 114.18444824 196.67349243 C120.39316934 199.41664259 126.62341668 202.10774549 132.86621094 204.77246094 C134.18105469 205.33416992 134.18105469 205.33416992 135.52246094 205.90722656 C137.46990472 206.73841351 139.41797073 207.56814247 141.36621094 208.39746094 C141.25459916 205.25100693 141.12440537 202.10556936 140.99121094 198.95996094 C140.94480469 197.6422168 140.94480469 197.6422168 140.89746094 196.29785156 C140.0697419 177.60519669 132.46149498 160.55708432 120.36621094 146.39746094 C119.93308594 145.82125 119.49996094 145.24503906 119.05371094 144.65136719 C111.13266808 134.44359469 98.99340848 127.66927044 87.80371094 121.70996094 C86.53895849 121.02543858 85.27472872 120.33994975 84.01098633 119.65356445 C80.76894174 117.89649119 77.51963529 116.15337501 74.26757812 114.41491699 C71.25554982 112.80312604 68.24880378 111.18157554 65.24121094 109.56152344 C59.45918971 106.45246495 53.66934222 103.3583068 47.87646484 100.26953125 C41.9117851 97.08847935 35.95097401 93.90021282 29.99121094 90.70996094 C29.40195831 90.39466431 28.81270569 90.07936768 28.20559692 89.7545166 C19.83349158 85.27369177 11.49233595 80.739789 3.16699219 76.17285156 C-2.52981598 73.05986423 -8.25321585 70.00021908 -13.99316406 66.96777344 C-14.7334787 66.57662857 -15.47379333 66.1854837 -16.23654175 65.78248596 C-19.90810796 63.84386869 -23.58151545 61.90883166 -27.25732422 59.97827148 C-34.35132126 56.24566002 -41.40925089 52.45604181 -48.40722656 48.54589844 C-49.07056 48.17741287 -49.73389343 47.80892731 -50.41732788 47.42927551 C-59.32837913 42.41310508 -65.69277052 36.43958606 -69.09472656 26.58886719 C-70.97644092 18.93928925 -69.85828171 10.52582048 -66.63378906 3.39746094 C-47.72372469 -22.96539351 -23.30634584 -13.86953361 0 0 Z " fill="#2C3753" transform="translate(791.6337890625,379.6025390625)"/>
<path d="M0 0 C4.48644337 3.11913585 9.09218072 6.03563632 13.71875 8.94140625 C14.52932861 9.45171387 15.33990723 9.96202148 16.17504883 10.48779297 C21.75611309 13.99414372 27.36687129 17.44938164 32.98828125 20.890625 C37.43760092 23.64976286 41.82927608 26.4944982 46.21875 29.34765625 C51.80151493 32.90441778 57.45619542 36.34714189 63.09375 39.81640625 C63.42375 29.25640625 63.75375 18.69640625 64.09375 7.81640625 C83.89375 7.81640625 103.69375 7.81640625 124.09375 7.81640625 C123.93390625 13.07964844 123.7740625 18.34289062 123.609375 23.765625 C123.55269686 27.12498903 123.50204134 30.48235246 123.47265625 33.84179688 C123.42555944 39.16188663 123.35779443 44.47541384 123.15771484 49.79223633 C121.67916212 68.42813874 121.67916212 68.42813874 126.96960449 85.64093018 C131.54916455 90.07015297 136.78305287 92.62400616 142.69055176 94.87417603 C145.75747618 96.07663566 148.39571406 97.72614797 151.140625 99.53515625 C152.70593239 100.46628766 154.2734792 101.3936698 155.84375 102.31640625 C163.7272507 106.9852756 171.50015003 111.80059862 179.23461914 116.71166992 C188.1663855 122.37759755 197.14887275 127.95926411 206.15625 133.50390625 C206.73663025 133.86151031 207.3170105 134.21911438 207.91497803 134.58755493 C209.56898077 135.60628479 211.22392385 136.62348742 212.87890625 137.640625 C213.83676025 138.22932373 214.79461426 138.81802246 215.78149414 139.42456055 C218.01072477 140.80744343 218.01072477 140.80744343 220.09375 141.81640625 C220.09375 142.47640625 220.09375 143.13640625 220.09375 143.81640625 C206.37570675 144.14285637 192.65860849 144.39057266 178.93745136 144.54177666 C172.56374344 144.61440302 166.19271984 144.7126603 159.82055664 144.87255859 C153.65405198 145.0263023 147.49010414 145.10871509 141.32182884 145.14468765 C138.98589054 145.17027173 136.65006957 145.22022542 134.31524086 145.29662704 C117.06261019 145.83797802 106.82229627 142.28486056 93.30415916 131.52045059 C90.01474597 128.98458256 86.52144057 126.83427503 82.96875 124.69140625 C81.68032184 123.89561134 80.39248088 123.09886423 79.10546875 122.30078125 C78.45755371 121.90052734 77.80963867 121.50027344 77.14208984 121.08789062 C73.34090815 118.728349 69.56221242 116.3331616 65.78125 113.94140625 C64.98211182 113.43633545 64.18297363 112.93126465 63.35961914 112.41088867 C60.16788261 110.39348543 56.97669989 108.37520928 53.78613281 106.35595703 C35.82287917 94.98744267 17.80321548 83.71040286 -0.28637695 72.54394531 C-7.18106194 68.28170416 -14.03625356 63.95868702 -20.8684082 59.59692383 C-21.60406006 59.12923584 -22.33971191 58.66154785 -23.09765625 58.1796875 C-24.05973999 57.56540894 -24.05973999 57.56540894 -25.04125977 56.9387207 C-30.4469134 53.68570463 -34.59704706 52.40896088 -40.90625 53.81640625 C-46.38738329 56.62989519 -51.32159291 60.13909594 -56.34375 63.69140625 C-57.80288999 64.69801182 -59.26368854 65.70221713 -60.72607422 66.70410156 C-63.69637791 68.74225241 -66.65882847 70.79108066 -69.61572266 72.84863281 C-75.29959904 76.79402981 -81.06144802 80.61970904 -86.8303833 84.43911743 C-89.59028835 86.26830845 -92.34357142 88.10737045 -95.09765625 89.9453125 C-99.25913583 92.71985621 -103.42394677 95.48930595 -107.59106445 98.25537109 C-110.36775101 100.10168172 -113.13674786 101.95933699 -115.90625 103.81640625 C-117.31003906 104.74259766 -117.31003906 104.74259766 -118.7421875 105.6875 C-131.9357633 114.58226807 -141.04067806 126.60358359 -145.28125 142.0703125 C-148.36914764 160.578399 -145.09700927 176.99761425 -134.90625 192.81640625 C-127.54232988 202.44200567 -119.08880867 208.98851212 -108.22265625 214.18359375 C-104.6651307 215.93511988 -101.22200136 217.84956791 -97.78125 219.81640625 C-90.67235788 223.86297941 -83.48846567 227.76045114 -76.28125 231.62890625 C-61.22092845 239.71608963 -46.16702286 247.81088639 -31.29785156 256.24560547 C-23.8071095 260.47206781 -16.21415971 264.50982887 -8.63549805 268.57568359 C0.03022609 273.22965043 8.63864538 277.97824479 17.22509766 282.77636719 C21.49751956 285.15427643 25.79473904 287.48698621 30.09375 289.81640625 C27.47922489 292.70139947 24.45081436 294.66696491 21.21875 296.81640625 C3.15326321 309.13018152 -10.35199268 323.49851882 -16.90625 344.81640625 C-21.75851522 343.41199871 -25.81696172 341.25035 -30.09375 338.62890625 C-37.83325869 333.97836974 -45.69172231 329.55799197 -53.59375 325.19140625 C-68.20806109 317.10961892 -68.20806109 317.10961892 -74.90625 313.25390625 C-81.86668673 309.25572181 -88.88305144 305.38525644 -96.00390625 301.6796875 C-107.70892501 295.58300891 -119.22256815 289.19587839 -130.68164062 282.64941406 C-133.55112925 281.01827228 -136.42748891 279.40060568 -139.30821228 277.78945923 C-141.79792032 276.39560432 -144.28360636 274.99466723 -146.76882935 273.59283447 C-148.53086149 272.60177795 -150.29745787 271.61884983 -152.06420898 270.63623047 C-163.80478182 263.99204228 -174.07299266 256.04692453 -183.90625 246.81640625 C-184.50824219 246.29046875 -185.11023438 245.76453125 -185.73046875 245.22265625 C-203.5955932 228.89834673 -213.40364952 201.82894159 -215.17138672 178.28515625 C-215.60911641 167.01945819 -214.92694627 156.04406517 -213.90625 144.81640625 C-234.69625 144.81640625 -255.48625 144.81640625 -276.90625 144.81640625 C-272.40785772 140.31801397 -272.40785772 140.31801397 -269.421875 138.36328125 C-268.74842041 137.91863525 -268.07496582 137.47398926 -267.38110352 137.01586914 C-266.64690186 136.53754639 -265.9127002 136.05922363 -265.15625 135.56640625 C-263.5037886 134.47674089 -261.85145079 133.38688809 -260.19921875 132.296875 C-258.89090088 131.43715088 -258.89090088 131.43715088 -257.55615234 130.56005859 C-253.18294517 127.68246088 -248.82525253 124.78171106 -244.46875 121.87890625 C-243.02483887 120.91742676 -243.02483887 120.91742676 -241.55175781 119.93652344 C-229.85371137 112.1342253 -218.20588628 104.25731326 -206.55194092 96.38937378 C-195.91848825 89.21077041 -185.2797763 82.04156632 -174.59375 74.94140625 C-167.73055528 70.37993233 -160.8953468 65.781735 -154.09375 61.12890625 C-129.20727897 44.10845876 -104.17382494 27.29994192 -79.09375 10.56640625 C-78.36669861 10.08084259 -77.63964722 9.59527893 -76.89056396 9.09500122 C-69.67709634 4.27919011 -62.4482316 -0.5121694 -55.16796875 -5.2265625 C-54.06541748 -5.94094482 -52.96286621 -6.65532715 -51.8269043 -7.39135742 C-34.01346525 -18.32243291 -15.65988361 -10.89833825 0 0 Z " fill="#4E78CE" transform="translate(794.90625,242.18359375)"/>
</svg>
